<?xml version="1.0" encoding="UTF-8" standalone="no"?>
<svg
   version="1.1"
   id="Calque_1"
   x="0px"
   y="0px"
   viewBox="0 0 174.86391 67.199996"
   xml:space="preserve"
   sodipodi:docname="debian.svg"
   width="174.86391"
   height="67.199997"
   inkscape:version="1.4 (e7c3feb100, 2024-10-09)"
   xmlns:inkscape="http://www.inkscape.org/namespaces/inkscape"
   xmlns:sodipodi="http://sodipodi.sourceforge.net/DTD/sodipodi-0.dtd"
   xmlns:xlink="http://www.w3.org/1999/xlink"
   xmlns="http://www.w3.org/2000/svg"
   xmlns:svg="http://www.w3.org/2000/svg"
   xmlns:rdf="http://www.w3.org/1999/02/22-rdf-syntax-ns#"
   xmlns:cc="http://creativecommons.org/ns#"
   xmlns:dc="http://purl.org/dc/elements/1.1/"><metadata
   id="metadata210"><rdf:RDF><cc:Work
       rdf:about=""><dc:format>image/svg+xml</dc:format><dc:type
         rdf:resource="http://purl.org/dc/dcmitype/StillImage" /></cc:Work></rdf:RDF></metadata><defs
   id="defs208">
	<defs
   id="defs5">
		<rect
   id="Background_00000026856190060715445750000016895008625527238046_"
   width="800"
   height="118.9"
   x="0"
   y="0" />
	</defs>
	<clipPath
   id="Background_00000044870812733774969190000008796483260891262892_">
		<use
   xlink:href="#Background_00000026856190060715445750000016895008625527238046_"
   style="overflow:visible"
   id="use7"
   x="0"
   y="0"
   width="100%"
   height="100%" />
	</clipPath>
	
		
	
		<radialGradient
   id="SVGID_1_"
   cx="2071.9773"
   cy="4011.8904"
   r="102.8234"
   gradientTransform="matrix(0.7061,0.7081,-0.7081,0.7061,1529.0892,-4237.2407)"
   gradientUnits="userSpaceOnUse">
		<stop
   offset="0"
   style="stop-color:#18F5B0"
   id="stop11" />
		<stop
   offset="1"
   style="stop-color:#05475C;stop-opacity:0"
   id="stop13" />
	</radialGradient>
	
		
	
		<linearGradient
   id="SVGID_00000179616897917330354980000011561049812798448817_"
   gradientUnits="userSpaceOnUse"
   x1="519.3717"
   y1="3240.2112"
   x2="627.06378"
   y2="3240.2112"
   gradientTransform="matrix(0.5793,0.8151,-0.8151,0.5793,2428.5149,-2280.7683)">
		<stop
   offset="0"
   style="stop-color:#AABDCB"
   id="stop18" />
		<stop
   offset="1"
   style="stop-color:#05475C;stop-opacity:0"
   id="stop20" />
	</linearGradient>
	
		
	
		<linearGradient
   id="SVGID_00000151506960524153772650000007951298693449447579_"
   gradientUnits="userSpaceOnUse"
   x1="543.64758"
   y1="3275.6653"
   x2="655.83929"
   y2="3275.6653"
   gradientTransform="matrix(0.5793,0.8151,-0.8151,0.5793,2428.5149,-2280.7683)">
		<stop
   offset="0"
   style="stop-color:#AABDCB"
   id="stop25" />
		<stop
   offset="1"
   style="stop-color:#05475C;stop-opacity:0"
   id="stop27" />
	</linearGradient>
	
		
	
		<linearGradient
   id="SVGID_00000054959116614249895770000000221916162525600166_"
   gradientUnits="userSpaceOnUse"
   x1="-1869.0492"
   y1="4227.9351"
   x2="-1788.5934"
   y2="4227.9351"
   gradientTransform="matrix(0.7388,-0.674,0.674,0.7388,-1428.9913,-4292.8726)">
		<stop
   offset="0"
   style="stop-color:#AABDCB"
   id="stop32" />
		<stop
   offset="1"
   style="stop-color:#05475C;stop-opacity:0"
   id="stop34" />
	</linearGradient>
	
		
	
		<linearGradient
   id="SVGID_00000076584837717113755220000001302127410726817958_"
   gradientUnits="userSpaceOnUse"
   x1="-299.42789"
   y1="365.40701"
   x2="-173.1377"
   y2="365.40701"
   gradientTransform="matrix(-0.7081,0.7061,-0.7061,-0.7081,195.92,528.0856)">
		<stop
   offset="0"
   style="stop-color:#18F5B0"
   id="stop39" />
		<stop
   offset="1"
   style="stop-color:#05475C;stop-opacity:0"
   id="stop41" />
	</linearGradient>
	
		
	
		<linearGradient
   id="SVGID_00000080169750799703955890000005136441007589844663_"
   gradientUnits="userSpaceOnUse"
   x1="3048.8147"
   y1="4230.5063"
   x2="3169.8237"
   y2="4230.5063"
   gradientTransform="matrix(0.5448,0.4811,-0.7351,0.668,1507.376,-4267.5776)">
		<stop
   offset="0"
   style="stop-color:#18F5B0"
   id="stop46" />
		<stop
   offset="1"
   style="stop-color:#05475C;stop-opacity:0"
   id="stop48" />
	</linearGradient>
	
		
	
		<linearGradient
   id="SVGID_00000037694208842369189450000004333509111787426185_"
   gradientUnits="userSpaceOnUse"
   x1="-3117.7859"
   y1="2325.3826"
   x2="-2990.2231"
   y2="2325.3826"
   gradientTransform="matrix(-0.5793,-0.8151,0.8151,-0.5793,-3606.8882,-1061.4724)">
		<stop
   offset="0"
   style="stop-color:#18F5B0"
   id="stop53" />
		<stop
   offset="1"
   style="stop-color:#05475C;stop-opacity:0"
   id="stop55" />
	</linearGradient>
	
		
	
		<linearGradient
   id="SVGID_00000142160648136796416000000000356130081868593301_"
   gradientUnits="userSpaceOnUse"
   x1="-2159.4937"
   y1="1988.8788"
   x2="-2085.7642"
   y2="1988.8788"
   gradientTransform="matrix(-0.8348,-1.1733,-1.0419,0.3814,1038.7856,-3142.53)">
		<stop
   offset="0"
   style="stop-color:#18F5B0"
   id="stop60" />
		<stop
   offset="1"
   style="stop-color:#05475C;stop-opacity:0"
   id="stop62" />
	</linearGradient>
	
		
	
		<linearGradient
   id="SVGID_00000149353234146548026910000011967449955480398782_"
   gradientUnits="userSpaceOnUse"
   x1="-821.70422"
   y1="2020.5839"
   x2="-733.64502"
   y2="2020.5839"
   gradientTransform="matrix(-1.0472,-1.0739,-1.2032,0.6854,2381.3579,-2119.7583)">
		<stop
   offset="0"
   style="stop-color:#18F5B0"
   id="stop67" />
		<stop
   offset="1"
   style="stop-color:#05475C;stop-opacity:0"
   id="stop69" />
	</linearGradient>
	
		
	
		<linearGradient
   id="SVGID_00000005262756244152058860000014009206744533896341_"
   gradientUnits="userSpaceOnUse"
   x1="-1589.9254"
   y1="5673.2871"
   x2="-1452.6158"
   y2="5673.2871"
   gradientTransform="matrix(1.5948,0.1286,-0.0829276,-1.3912,3554.7644,8170.1538)">
		<stop
   offset="0"
   style="stop-color:#18F5B0"
   id="stop74" />
		<stop
   offset="1"
   style="stop-color:#05475C;stop-opacity:0"
   id="stop76" />
	</linearGradient>
	
		
	
		<linearGradient
   id="SVGID_00000062907151268549484640000010113072420936571282_"
   gradientUnits="userSpaceOnUse"
   x1="2321.6284"
   y1="7885.2676"
   x2="2590.0913"
   y2="7885.2676"
   gradientTransform="matrix(-0.5695,0.353,0.3978,0.9064,-1145.8097,-7876.1426)">
		<stop
   offset="0"
   style="stop-color:#18F5B0"
   id="stop81" />
		<stop
   offset="1"
   style="stop-color:#05475C;stop-opacity:0"
   id="stop83" />
	</linearGradient>
	
		
	
		<linearGradient
   id="SVGID_00000089535883260023599530000003881989551543565716_"
   gradientUnits="userSpaceOnUse"
   x1="-3801.7717"
   y1="2581.1084"
   x2="-3655.5669"
   y2="2581.1084"
   gradientTransform="matrix(0.9175,-0.3976,-0.3976,-0.9175,5165.6392,896.7063)">
		<stop
   offset="0"
   style="stop-color:#18F5B0"
   id="stop88" />
		<stop
   offset="1"
   style="stop-color:#05475C;stop-opacity:0"
   id="stop90" />
	</linearGradient>
	
		
	
		<linearGradient
   id="SVGID_00000168080479601119795980000010399131175725076149_"
   gradientUnits="userSpaceOnUse"
   x1="3002.5527"
   y1="2896.1086"
   x2="3201.8784"
   y2="2896.1086"
   gradientTransform="matrix(0.7176,0.6964,0.6964,-0.7176,-3514.7,23.0145)">
		<stop
   offset="0"
   style="stop-color:#18F5B0"
   id="stop95" />
		<stop
   offset="1"
   style="stop-color:#05475C;stop-opacity:0"
   id="stop97" />
	</linearGradient>
	
		
	

		
		
	</defs><sodipodi:namedview
   pagecolor="#ffffff"
   bordercolor="#666666"
   borderopacity="1"
   objecttolerance="10"
   gridtolerance="10"
   guidetolerance="10"
   inkscape:pageopacity="0"
   inkscape:pageshadow="2"
   inkscape:window-width="1920"
   inkscape:window-height="1014"
   id="namedview206"
   showgrid="false"
   inkscape:zoom="1.3425"
   inkscape:cx="56.238361"
   inkscape:cy="-74.487896"
   inkscape:window-x="0"
   inkscape:window-y="0"
   inkscape:window-maximized="1"
   inkscape:current-layer="Calque_1"
   inkscape:showpageshadow="0"
   inkscape:pagecheckerboard="0"
   inkscape:deskcolor="#505050" />
<style
   type="text/css"
   id="style2">
	.st0{clip-path:url(#Background_00000102520983335176584460000018125318467460867503_);fill:#05475C;}
	
		.st1{opacity:0.34;clip-path:url(#Background_00000102520983335176584460000018125318467460867503_);fill:url(#SVGID_1_);enable-background:new    ;}
	
		.st2{opacity:0.34;clip-path:url(#Background_00000102520983335176584460000018125318467460867503_);fill:url(#SVGID_00000178182780697739197090000011750145322304245918_);enable-background:new    ;}
	
		.st3{opacity:0.34;clip-path:url(#Background_00000102520983335176584460000018125318467460867503_);fill:url(#SVGID_00000036972404291961379350000014649281756443647621_);enable-background:new    ;}
	
		.st4{opacity:0.34;clip-path:url(#Background_00000102520983335176584460000018125318467460867503_);fill:url(#SVGID_00000144336764491445625340000016735763571535888551_);enable-background:new    ;}
	
		.st5{opacity:0.34;clip-path:url(#Background_00000102520983335176584460000018125318467460867503_);fill:url(#SVGID_00000100356777171687087190000017818438002794589597_);enable-background:new    ;}
	
		.st6{opacity:0.34;clip-path:url(#Background_00000102520983335176584460000018125318467460867503_);fill:url(#SVGID_00000047031931277112669410000006714671741352288403_);enable-background:new    ;}
	
		.st7{opacity:0.34;clip-path:url(#Background_00000102520983335176584460000018125318467460867503_);fill:url(#SVGID_00000099644729507189701260000010706602424485791128_);enable-background:new    ;}
	
		.st8{opacity:0.34;clip-path:url(#Background_00000102520983335176584460000018125318467460867503_);fill:url(#SVGID_00000099643156709406825720000000661599276733186475_);enable-background:new    ;}
	
		.st9{opacity:0.34;clip-path:url(#Background_00000102520983335176584460000018125318467460867503_);fill:url(#SVGID_00000085928802517850728910000010310045178694405528_);enable-background:new    ;}
	
		.st10{opacity:0.34;clip-path:url(#Background_00000102520983335176584460000018125318467460867503_);fill:url(#SVGID_00000094582244497647487390000000288866801062271386_);enable-background:new    ;}
	
		.st11{opacity:0.12;clip-path:url(#Background_00000102520983335176584460000018125318467460867503_);fill:url(#SVGID_00000171693518974126855710000016440847870151128972_);enable-background:new    ;}
	
		.st12{opacity:0.12;clip-path:url(#Background_00000102520983335176584460000018125318467460867503_);fill:url(#SVGID_00000016791328930933757030000016378048687658986664_);enable-background:new    ;}
	
		.st13{opacity:0.12;clip-path:url(#Background_00000102520983335176584460000018125318467460867503_);fill:url(#SVGID_00000003806303842871299550000002703227051530083771_);enable-background:new    ;}
	.st14{clip-path:url(#Background_00000102520983335176584460000018125318467460867503_);}
	.st15{enable-background:new    ;}
	.st16{fill:#FFFFFF;}
</style>
<g
   id="g144"
   transform="translate(-220.83609,-37)">
			<g
   class="st15"
   id="g126">
				<path
   class="st16"
   d="m 242.4,60.7 c -0.7,0 0.1,0.4 1.1,0.5 0.3,-0.2 0.5,-0.4 0.7,-0.6 -0.6,0.1 -1.2,0.1 -1.8,0.1"
   id="path102" />
				<path
   class="st16"
   d="m 246.4,59.7 c 0.4,-0.6 0.8,-1.3 0.9,-2 -0.1,0.5 -0.4,0.9 -0.6,1.4 -1.4,0.9 -0.1,-0.5 0,-1.1 -1.6,1.9 -0.3,1.2 -0.3,1.7"
   id="path104" />
				<path
   class="st16"
   d="m 247.8,55.9 c 0.1,-1.3 -0.3,-0.9 -0.4,-0.4 0.2,0 0.3,0.9 0.4,0.4"
   id="path106" />
				<path
   class="st16"
   d="m 239.6,37.5 c 0.4,0.1 0.9,0.1 0.8,0.2 0.4,0 0.5,-0.1 -0.8,-0.2"
   id="path108" />
				<path
   class="st16"
   d="m 240.3,37.8 -0.3,0.1 0.3,-0.1 v 0"
   id="path110" />
				<path
   class="st16"
   d="m 252.7,56.4 c 0,1.2 -0.4,1.8 -0.7,2.8 l -0.7,0.3 c -0.5,1 0,0.7 -0.3,1.5 -0.8,0.7 -2.5,2.3 -3,2.4 -0.4,0 0.3,-0.5 0.4,-0.6 -1.1,0.8 -0.9,1.1 -2.6,1.6 v -0.1 c -4.1,2 -9.9,-1.9 -9.8,-7.2 0,0.3 -0.1,0.3 -0.2,0.4 -0.2,-2.7 1.3,-5.4 3.7,-6.5 2.4,-1.2 5.3,-0.7 7,0.9 -0.9,-1.2 -2.8,-2.6 -5.1,-2.4 -2.2,0 -4.3,1.4 -4.9,2.9 -1.1,0.7 -1.3,2.7 -1.7,3.1 -0.7,4.9 1.2,6.9 4.5,9.4 0.5,0.3 0.1,0.4 0.2,0.7 -1.1,-0.5 -2,-1.3 -2.9,-2.2 0.4,0.6 0.9,1.2 1.5,1.7 -1,-0.3 -2.4,-2.4 -2.8,-2.5 1.7,3.1 7.1,5.5 9.8,4.3 -1.3,0 -2.9,0 -4.4,-0.5 -0.6,-0.3 -1.4,-1 -1.3,-1.1 3.8,1.4 7.7,1.1 11,-1.6 0.8,-0.7 1.7,-1.8 2,-1.8 -0.4,0.6 0.1,0.3 -0.2,0.8 0.8,-1.3 -0.4,-0.5 0.9,-2.3 l 0.4,0.6 c -0.2,-1.1 1.4,-2.5 1.2,-4.2 0.4,-0.5 0.4,0.6 0,1.8 0.5,-1.4 0.1,-1.6 0.3,-2.7 0.1,0.4 0.3,0.8 0.4,1.2 -0.3,-1.3 0.4,-2.2 0.5,-3 -0.2,-0.1 -0.5,0.6 -0.6,-1 0,-0.7 0.2,-0.4 0.3,-0.5 -0.1,-0.1 -0.5,-0.6 -0.7,-1.6 0.1,-0.2 0.4,0.6 0.6,0.7 -0.1,-0.8 -0.4,-1.4 -0.4,-2 -0.6,-1.3 -0.2,0.2 -0.7,-0.5 -0.7,-2 0.5,-0.5 0.6,-1.4 1,1.4 1.6,3.7 1.8,4.6 -0.2,-1.1 -0.5,-2.2 -0.9,-3.3 0.3,0.1 -0.5,-2.3 0.4,-0.7 -0.9,-3.5 -4,-6.7 -6.9,-8.2 0.3,0.3 0.8,0.7 0.6,0.8 -1.4,-0.8 -1.2,-0.9 -1.4,-1.3 -1.1,-0.5 -1.2,0 -2,0 -2.2,-1.2 -2.6,-1 -4.6,-1.7 l 0.1,0.4 c -1.4,-0.5 -1.7,0.2 -3.2,0 -0.1,-0.1 0.5,-0.3 1,-0.3 -1.4,0.2 -1.3,-0.3 -2.7,0 0.3,-0.2 0.7,-0.4 1.1,-0.6 -1.1,0.1 -2.7,0.7 -2.2,0.1 -1.9,0.8 -5.1,2 -6.9,3.7 l -0.1,-0.4 c -0.8,1 -3.7,3 -3.9,4.3 H 225 c -0.4,0.7 -0.7,1.6 -1.1,2.3 -0.6,1 -0.8,0.4 -0.8,0.5 -1.1,2.3 -1.7,4.2 -2.2,5.8 0.3,0.5 0,3.1 0.1,5.2 -0.6,10.2 7.2,20.1 15.6,22.4 1.2,0.4 3.1,0.4 4.7,0.5 -1.9,-0.5 -2.1,-0.3 -3.9,-0.9 -1.3,-0.6 -1.6,-1.3 -2.5,-2.1 l 0.4,0.7 c -1.8,-0.6 -1.1,-0.8 -2.5,-1.3 l 0.4,-0.5 c -0.6,0 -1.6,-1 -1.8,-1.5 h -0.6 c -0.8,-0.9 -1.2,-1.6 -1.2,-2.2 l -0.2,0.4 c -0.2,-0.4 -2.8,-3.6 -1.5,-2.8 -0.3,-0.2 -0.6,-0.4 -0.9,-1 l 0.3,-0.3 c -0.7,-0.8 -1.2,-1.9 -1.2,-2.3 0.3,0.5 0.6,0.5 0.8,0.6 -1.6,-4.1 -1.7,-0.2 -3,-4.1 h 0.3 C 224,64.3 223.9,64 223.7,63.7 l 0.1,-1.1 c -1.2,-1.4 -0.3,-5.8 -0.2,-8.2 0.1,-1 1,-2 1.6,-3.7 l -0.4,-0.1 c 0.8,-1.3 4.4,-5.4 6.1,-5.2 0.8,-1 -0.2,0 -0.3,-0.3 1.8,-1.9 2.3,-1.3 3.5,-1.6 1.3,-0.8 -1.1,0.3 -0.5,-0.3 2.2,-0.6 1.6,-1.3 4.5,-1.6 0.3,0.2 -0.7,0.3 -1,0.5 1.9,-0.9 5.9,-0.7 8.5,0.5 3.1,1.4 6.5,5.6 6.6,9.6 h 0.1 c -0.1,1.6 0.2,3.4 -0.3,5.1 l 0.7,-0.9"
   id="path112" />
				<path
   class="st16"
   d="m 234.3,61.7 -0.1,0.5 c 0.5,0.7 0.9,1.4 1.5,1.9 -0.5,-0.9 -0.8,-1.2 -1.4,-2.4"
   id="path114" />
				<path
   class="st16"
   d="m 235.4,61.6 c -0.3,-0.3 -0.4,-0.6 -0.6,-1 0.2,0.6 0.5,1.1 0.8,1.6 l -0.2,-0.6"
   id="path116" />
				<path
   class="st16"
   d="m 255.9,57.2 -0.1,0.3 c -0.2,1.4 -0.6,2.8 -1.3,4.1 0.7,-1.4 1.1,-2.9 1.4,-4.4"
   id="path118" />
				<path
   class="st16"
   d="m 239.7,37.2 c 0.5,-0.2 1.2,-0.1 1.8,-0.2 -0.7,0.1 -1.4,0.1 -2.1,0.2 h 0.3"
   id="path120" />
				<path
   class="st16"
   d="m 222,46.6 c 0.1,1.1 -0.8,1.5 0.2,0.8 0.6,-1.3 -0.2,-0.4 -0.2,-0.8"
   id="path122" />
				<path
   class="st16"
   d="m 220.9,51.5 c 0.2,-0.7 0.3,-1.1 0.4,-1.6 -0.7,0.9 -0.4,1.1 -0.4,1.6"
   id="path124" />
			</g>
			<g
   class="st15"
   id="g142">
				<path
   class="st16"
   d="m 283.5,60 c 0,0 0,8.8 -0.1,11.1 -0.1,1.8 -0.2,5.8 -4.2,5.8 -4,0 -5,-4.6 -5.3,-6.7 -0.4,-2.2 -0.4,-4.1 -0.4,-4.9 0,-2.6 0.1,-9.9 6.3,-9.9 1.8,0 2.9,0.5 3.7,1 z m -15.8,6.4 c 0,15.4 8.2,15.4 9.4,15.4 3.4,0 5.6,-1.8 6.5,-5.1 l 0.1,4.8 c 1,0 2.1,-0.1 3.8,-0.1 0.6,0 1.1,0 1.5,0 0.4,0 0.9,0 1.3,0.1 -0.9,-1.7 -1.5,-5.7 -1.5,-14.2 0,-8.3 0,-22.3 0.7,-26.5 -1.9,0.9 -3.6,1.5 -7.4,1.8 1.5,1.6 1.5,2.4 1.5,9.6 -1,-0.3 -2.3,-0.7 -4.6,-0.7 -9.7,0.1 -11.3,8.6 -11.3,14.9"
   id="path128" />
				<path
   class="st16"
   d="m 297.3,63.6 c 0,-4.5 1,-8.6 4.8,-8.6 4.2,0 4.6,4.7 4.5,8.6 z m 14.7,0.6 c 0,-6.4 -1.2,-12.7 -9.3,-12.7 -11.1,0 -11.1,12.4 -11.1,14.9 0,11.1 5,15.4 13.3,15.4 3.7,0 5.5,-0.5 6.5,-0.8 0,-1.9 0.2,-3.2 0.5,-4.9 -1.1,0.7 -2.6,1.6 -5.9,1.6 -8.5,0 -8.6,-7.8 -8.6,-10.4 h 14.5 l 0.1,-3.1"
   id="path130" />
				<path
   class="st16"
   d="m 329.7,66.5 c 0,5.1 -0.9,11.9 -7.3,11.9 -0.9,0 -1.9,-0.1 -2.7,-0.3 -0.1,-1.9 -0.1,-5.3 -0.1,-9.3 0,-4.7 0.5,-7.1 0.9,-8.4 1.1,-3.9 3.7,-3.9 4.2,-3.9 4.2,0.1 5,5.8 5,10 z m -15.6,6 c 0,4 0,6.3 -0.6,8.1 2.2,0.9 5,1.3 8.4,1.3 2.1,0 8.3,0 11.6,-6.8 1.6,-3.2 2.1,-7.4 2.1,-10.7 0,-1.9 -0.2,-6.3 -1.8,-9 -1.5,-2.5 -4,-3.9 -6.6,-3.9 -5.2,0 -6.8,4.4 -7.6,6.6 0,-2.8 0,-12.5 0.5,-17.4 -3.5,1.6 -5.7,1.9 -8.1,2.1 2.1,0.8 2.1,4.5 2.1,16.2 v 13.5"
   id="path132" />
				<path
   class="st16"
   d="m 346,81.6 c -1.1,-0.1 -1.8,-0.2 -3.4,-0.2 -1.7,0 -2.9,0.1 -4.2,0.2 0.5,-1 0.7,-1.5 0.9,-5.1 0.2,-4.9 0.2,-17.8 -0.1,-20.6 -0.2,-2.1 -0.7,-2.4 -1.5,-2.9 4.5,-0.4 5.7,-0.7 7.8,-1.7 -0.4,2.4 -0.5,3.6 -0.5,7.3 -0.1,18.7 -0.2,20.7 1,23"
   id="path134" />
				<path
   class="st16"
   d="m 363.5,66.1 c -0.1,3.4 -0.1,5.8 -1.1,7.8 -1.1,2.4 -3,3.2 -4.5,3.2 -3.3,0 -4,-2.7 -4,-5.4 0,-5.1 4.6,-5.5 6.7,-5.5 z m -15,6.8 c 0,3.4 1,6.9 4.1,8.4 1.3,0.6 2.7,0.6 3.2,0.6 5,0 6.7,-3.7 7.8,-6 0,2.4 0,3.9 0.1,5.8 1,0 1.9,-0.1 3.6,-0.1 0.9,0 1.8,0.1 2.7,0.1 -0.6,-0.9 -0.9,-1.5 -1.1,-3.6 -0.1,-2.1 -0.1,-4.1 -0.1,-7 V 60 c 0,-4.1 -1.1,-8.2 -9.3,-8.2 -5.4,0 -8.6,1.6 -10.2,2.4 0.6,1.2 1.2,2.2 1.7,4.6 2.1,-1.8 4.9,-2.8 7.8,-2.8 4.5,0 4.5,3 4.5,7.3 -1,0 -1.9,-0.1 -3.4,-0.1 -6.8,-0.3 -11.4,2.3 -11.4,9.7"
   id="path136" />
				<path
   class="st16"
   d="m 394.9,76.2 c 0,1.8 0,3.8 0.8,5.4 -1.2,-0.1 -1.9,-0.2 -4.1,-0.2 -1.3,0 -2,0.1 -3,0.2 0.2,-0.7 0.3,-1 0.4,-1.9 0.1,-1.2 0.2,-5.5 0.2,-6.9 v -5.9 c 0,-2.5 0,-6.3 -0.1,-7.6 -0.1,-0.9 -0.4,-3.4 -3.5,-3.4 -3.1,0 -4.1,2.3 -4.5,4.1 -0.4,1.9 -0.4,4 -0.4,12.1 0,7 0,7.6 0.6,9.6 -0.9,-0.1 -2.1,-0.2 -3.7,-0.2 -1.3,0 -2.2,0 -3.3,0.2 0.4,-0.9 0.6,-1.3 0.7,-4.4 0.1,-3 0.3,-17.7 -0.1,-21.2 -0.2,-2.1 -0.8,-2.6 -1.4,-3.2 4.4,-0.2 5.8,-0.9 7.2,-1.6 V 57 c 0.6,-1.7 2,-5.5 7.5,-5.5 6.8,0 6.9,5 6.9,8.2 l -0.2,16.5"
   id="path138" />
				<path
   class="st16"
   d="M 346.5,43.5 342,48 337.5,43.5 342,39 l 4.5,4.5"
   id="path140" />
			</g>
		</g><g
   id="g200"
   transform="translate(-404.43609,-5)">
			<path
   class="st16"
   d="m 441,65.3 c 0,1.3 0,2.3 0,3.1 0,0.8 0.1,0.9 0.2,1.2 -0.2,0 -0.5,-0.1 -0.9,-0.1 -0.4,0 -0.6,0 -0.9,0.1 0.1,-0.3 0.2,-0.5 0.2,-1.2 0,-1.2 0,-2.1 0,-3.1 v -1.5 c 0,-1 0,-1.2 0,-1.6 -0.4,0 -0.8,0 -1.2,0 -0.7,0 -0.8,0.3 -1,0.4 0,-0.3 0,-0.5 0,-0.7 0,-0.3 0,-0.5 0,-0.7 0.2,0 0.4,0 0.8,0.1 0.4,0 0.9,0 1.7,0 0.2,0 2.4,0 3.2,-0.1 0,0.2 0,0.4 0,0.7 0,0.3 0,0.4 0,0.7 -0.1,-0.2 -0.3,-0.3 -1,-0.3 -0.7,0 -0.8,0 -1.2,0 v 1.6 z"
   id="path146" />
			<path
   class="st16"
   d="m 448.1,67.9 c 0,1 0.1,1.3 0.2,1.7 -0.3,0 -0.5,-0.1 -0.8,-0.1 -0.4,0 -0.6,0 -0.9,0.1 0.1,-0.2 0.1,-0.3 0.2,-0.6 0,-0.6 0,-1.4 0,-3.2 0,-1.2 0,-1.8 -0.8,-1.8 -0.7,0 -0.9,0.5 -1,0.9 -0.1,0.5 -0.1,1.2 -0.1,3 0,1.2 0,1.4 0.2,1.8 -0.2,0 -0.4,-0.1 -0.7,-0.1 -0.4,0 -0.6,0 -0.9,0.1 0.1,-0.1 0.1,-0.2 0.1,-0.5 0,-0.2 0,-0.3 0.1,-1.6 v -4.2 c 0,-0.3 0,-1.3 -0.2,-1.8 -0.1,-0.2 -0.2,-0.3 -0.3,-0.3 0.9,-0.1 1.3,-0.3 1.7,-0.5 -0.1,0.6 -0.1,0.9 -0.1,1.8 v 1.8 c 0.1,-0.4 0.5,-1.3 1.7,-1.3 0.4,0 0.8,0.1 1.1,0.3 0.4,0.3 0.5,0.8 0.5,1.7 z"
   id="path148" />
			<path
   class="st16"
   d="m 453.6,66.5 h -3.2 c 0,0.6 0,2.3 1.9,2.3 0.7,0 1,-0.2 1.3,-0.4 -0.1,0.4 -0.1,0.6 -0.1,1.1 -0.2,0.1 -0.6,0.2 -1.4,0.2 -1.8,0 -2.9,-1 -2.9,-3.4 0,-0.6 0,-3.3 2.4,-3.3 1.8,0 2.1,1.4 2.1,2.8 z m -1.1,-0.9 c 0,-0.9 0,-1.9 -1,-1.9 -0.9,0 -1.1,0.9 -1.1,1.9 z"
   id="path150" />
			<path
   class="st16"
   d="m 462.1,67.2 c 0,1 0,1.3 0,1.6 0,0.4 0.1,0.6 0.3,0.7 -0.3,0 -0.5,0 -0.7,0 -0.3,0 -0.5,0 -0.8,0 v -1.1 c -0.2,0.4 -0.6,1.2 -1.7,1.2 -0.2,0 -0.5,0 -0.8,-0.1 -0.5,-0.2 -0.7,-0.6 -0.7,-1.4 v -2.7 c 0,-1.1 0,-1.3 0,-1.6 -0.1,-0.5 -0.2,-0.5 -0.4,-0.6 1.1,0 1.5,-0.2 1.8,-0.3 -0.1,0.3 -0.1,0.5 -0.1,1.1 v 2.7 c 0,0.9 0,1.1 0,1.3 0,0.2 0.1,0.7 0.8,0.7 1,0 1.1,-1 1.1,-1.5 0.1,-0.7 0.1,-1.5 0.1,-2.8 0,-1 -0.1,-1.1 -0.3,-1.3 0.9,0 1.2,-0.1 1.7,-0.3 -0.1,0.6 -0.1,0.8 -0.1,2.7 v 1.7 z"
   id="path152" />
			<path
   class="st16"
   d="m 467.8,68.4 c 0,0.4 0,0.8 0.2,1.2 -0.3,0 -0.4,-0.1 -0.9,-0.1 -0.3,0 -0.4,0 -0.7,0.1 0,-0.2 0.1,-0.2 0.1,-0.4 0,-0.3 0.1,-1.2 0.1,-1.5 v -1.3 c 0,-0.6 0,-1.4 0,-1.7 0,-0.2 -0.1,-0.8 -0.8,-0.8 -0.7,0 -0.9,0.5 -1,0.9 -0.1,0.4 -0.1,0.9 -0.1,2.7 0,1.5 0,1.7 0.1,2.1 -0.2,0 -0.5,0 -0.8,0 -0.3,0 -0.5,0 -0.7,0 0.1,-0.2 0.1,-0.3 0.2,-1 0,-0.7 0.1,-3.9 0,-4.7 -0.1,-0.5 -0.2,-0.6 -0.3,-0.7 1,0 1.3,-0.2 1.6,-0.4 v 1.3 c 0.1,-0.4 0.4,-1.2 1.6,-1.2 1.5,0 1.5,1.1 1.5,1.8 v 3.7 z"
   id="path154" />
			<path
   class="st16"
   d="m 470.7,69.6 c -0.2,0 -0.4,-0.1 -0.8,-0.1 -0.4,0 -0.6,0 -0.9,0.1 0.1,-0.2 0.2,-0.3 0.2,-1.1 0,-1.1 0.1,-3.9 0,-4.5 -0.1,-0.5 -0.2,-0.5 -0.3,-0.6 1,-0.1 1.3,-0.2 1.7,-0.4 -0.1,0.5 -0.1,0.8 -0.1,1.6 0,4.1 0,4.5 0.2,5 z m -0.9,-7.2 c -0.4,0 -0.7,-0.3 -0.7,-0.8 0,-0.3 0.1,-0.8 0.7,-0.8 0.5,0 0.6,0.4 0.6,0.8 0.1,0.5 0,0.8 -0.6,0.8 z"
   id="path156" />
			<path
   class="st16"
   d="m 475.4,66.6 c -0.3,1.1 -0.3,1.3 -0.7,3 -0.3,0 -0.5,-0.1 -0.8,-0.1 -0.4,0 -0.6,0 -0.9,0.1 -0.1,-0.4 -0.1,-0.6 -0.2,-1.2 L 472,65.2 c -0.2,-0.7 -0.4,-1.7 -0.7,-2.2 0.1,0 0.3,0 0.4,0 0.1,0 0.3,0 0.4,0 0.4,0 0.7,0 1,-0.1 0,0.1 0,0.2 0,0.3 0,0.5 0.3,1.8 0.7,4 l 0.3,1.2 0.3,-1.2 c 0.4,-1.5 0.9,-3.5 0.9,-4 0,-0.2 0,-0.3 -0.1,-0.3 0.1,0 0.2,0 0.3,0 0.1,0 0.2,0 0.4,0 0.4,0 0.6,0 0.8,-0.1 -0.3,0.6 -0.4,0.9 -0.7,1.9 z"
   id="path158" />
			<path
   class="st16"
   d="m 481.1,66.5 h -3.2 c 0,0.6 0,2.3 1.9,2.3 0.7,0 1,-0.2 1.3,-0.4 -0.1,0.4 -0.1,0.6 -0.1,1.1 -0.2,0.1 -0.6,0.2 -1.4,0.2 -1.8,0 -2.9,-1 -2.9,-3.4 0,-0.6 0,-3.3 2.4,-3.3 1.8,0 2.1,1.4 2.1,2.8 z M 480,65.6 c 0,-0.9 0,-1.9 -1,-1.9 -0.9,0 -1.1,0.9 -1.1,1.9 z"
   id="path160" />
			<path
   class="st16"
   d="m 482.3,65.9 c 0,-2.1 0,-2.5 -0.5,-2.7 0.5,0 1,0 1.7,-0.3 l -0.1,1.8 c 0.2,-0.4 0.7,-1.6 2.1,-1.8 -0.1,0.4 -0.2,0.9 -0.2,1.3 -0.1,0 -0.2,0 -0.3,0 -0.1,0 -1.3,0 -1.5,1.5 -0.1,0.6 -0.1,2 -0.1,2.5 0,0.5 0,1.1 0.2,1.5 -0.2,0 -0.4,-0.1 -0.7,-0.1 -0.4,0 -0.6,0 -0.8,0.1 0.1,-0.2 0.1,-0.3 0.1,-0.6 l 0.1,-1.6 z"
   id="path162" />
			<path
   class="st16"
   d="m 489.7,63.2 c -0.1,0.3 -0.2,0.5 -0.3,1.1 -0.4,-0.5 -1.1,-0.5 -1.2,-0.5 -0.8,0 -1,0.5 -1,0.9 0,0.5 0.4,0.7 1,1.1 0.9,0.5 1.6,0.8 1.6,1.9 0,1.4 -1,2.1 -2.6,2.1 -0.9,0 -1.3,-0.2 -1.5,-0.2 0.2,-0.4 0.3,-0.6 0.3,-1.2 0.2,0.2 0.5,0.5 1.3,0.5 0.8,0 1.2,-0.4 1.2,-1 0,-0.5 -0.2,-0.6 -1.2,-1.2 -0.6,-0.3 -1.3,-0.8 -1.3,-1.8 0,-1 0.7,-1.9 2.3,-1.9 0.3,-0.1 0.8,0 1.4,0.2 z"
   id="path164" />
			<path
   class="st16"
   d="m 493.1,65.5 c 0.3,0 0.5,0 0.7,0 0,-0.9 0,-1.6 -1,-1.6 -0.6,0 -1.2,0.2 -1.7,0.6 -0.1,-0.5 -0.2,-0.7 -0.4,-1 0.3,-0.2 1,-0.5 2.2,-0.5 1.8,0 2,0.9 2,1.8 v 2.4 c 0,0.6 0,1.1 0,1.5 0,0.5 0.1,0.6 0.2,0.8 -0.2,0 -0.4,0 -0.6,0 -0.4,0 -0.6,0 -0.8,0 0,-0.4 0,-0.7 0,-1.3 -0.2,0.5 -0.6,1.3 -1.7,1.3 -0.1,0 -0.4,0 -0.7,-0.1 -0.7,-0.3 -0.9,-1.1 -0.9,-1.8 0.2,-1.5 1.2,-2.1 2.7,-2.1 z m 0.2,0.7 c -0.5,0 -1.5,0.1 -1.5,1.2 0,0.6 0.2,1.2 0.9,1.2 0.3,0 0.7,-0.2 1,-0.7 0.2,-0.4 0.2,-0.9 0.2,-1.7 z"
   id="path166" />
			<path
   class="st16"
   d="m 497.7,66 c 0,0.9 0,1.7 0,2.4 0,0.8 0.1,0.9 0.2,1.2 -0.2,0 -0.4,-0.1 -0.8,-0.1 -0.4,0 -0.6,0 -0.9,0.1 0.1,-0.2 0.1,-0.3 0.2,-0.6 0,-0.4 0,-1.1 0.1,-2.3 v -2.1 c 0,-1.5 0,-2.1 -0.1,-2.7 -0.1,-0.6 -0.2,-0.7 -0.4,-0.9 0.8,-0.1 1.2,-0.2 1.8,-0.5 -0.1,0.7 -0.1,0.8 -0.1,3.2 z"
   id="path168" />
			<path
   class="st16"
   d="m 504.4,69.7 c -2.2,0 -2.4,-1.9 -2.4,-3.3 0,-1.4 0.3,-3.4 2.5,-3.4 2.1,0 2.4,1.7 2.4,3.2 -0.1,1.6 -0.4,3.5 -2.5,3.5 z m 0,-6 c -1,0 -1.2,1.1 -1.2,2.7 0,1 0.1,2.4 1.2,2.4 0.8,0 1.1,-0.7 1.1,-2.7 0,-1.7 -0.4,-2.4 -1.1,-2.4 z"
   id="path170" />
			<path
   class="st16"
   d="m 509.1,70.6 c 0,1 0.1,1.2 0.2,1.5 -0.1,0 -0.3,0 -0.4,-0.1 -0.1,0 -0.3,0 -0.5,0 -0.4,0 -0.5,0 -0.8,0.1 0.1,-0.1 0.2,-0.3 0.2,-3.1 v -1.7 -1.6 c 0,-1.9 -0.1,-2.2 -0.4,-2.5 1.1,0 1.4,-0.2 1.7,-0.4 v 1.5 c 0.2,-0.5 0.6,-1.4 1.7,-1.4 1.9,0 1.9,2.3 1.9,2.8 0,1.4 -0.3,3.8 -3,3.8 -0.2,0 -0.3,0 -0.7,0 z m 0,-1.8 c 0.1,0 0.3,0.1 0.6,0.1 1.6,0 1.8,-1.4 1.8,-2.5 0,-0.6 0,-2.4 -1.1,-2.4 -0.5,0 -0.9,0.4 -1.1,1.1 -0.2,0.6 -0.2,1.8 -0.2,2.4 z"
   id="path172" />
			<path
   class="st16"
   d="m 518.1,66.5 h -3.2 c 0,0.6 0,2.3 1.9,2.3 0.7,0 1,-0.2 1.3,-0.4 -0.1,0.4 -0.1,0.6 -0.1,1.1 -0.2,0.1 -0.6,0.2 -1.4,0.2 -1.8,0 -2.9,-1 -2.9,-3.4 0,-0.6 0,-3.3 2.4,-3.3 1.8,0 2.1,1.4 2.1,2.8 z m -1.2,-0.9 c 0,-0.9 0,-1.9 -1,-1.9 -0.9,0 -1.1,0.9 -1.1,1.9 z"
   id="path174" />
			<path
   class="st16"
   d="m 519.2,65.9 c 0,-2.1 0,-2.5 -0.5,-2.7 0.5,0 1,0 1.7,-0.3 l -0.1,1.8 c 0.2,-0.4 0.7,-1.6 2.1,-1.8 -0.1,0.4 -0.2,0.9 -0.2,1.3 -0.1,0 -0.2,0 -0.3,0 -0.1,0 -1.3,0 -1.5,1.5 -0.1,0.6 -0.1,2 -0.1,2.5 0,0.5 0,1.1 0.2,1.5 -0.2,0 -0.4,-0.1 -0.7,-0.1 -0.4,0 -0.6,0 -0.8,0.1 0.1,-0.2 0.1,-0.3 0.1,-0.6 l 0.1,-1.6 z"
   id="path176" />
			<path
   class="st16"
   d="m 525.1,65.5 c 0.3,0 0.5,0 0.7,0 0,-0.9 0,-1.6 -1,-1.6 -0.6,0 -1.2,0.2 -1.7,0.6 -0.1,-0.5 -0.2,-0.7 -0.4,-1 0.3,-0.2 1,-0.5 2.2,-0.5 1.8,0 2,0.9 2,1.8 v 2.4 c 0,0.6 0,1.1 0,1.5 0,0.5 0.1,0.6 0.2,0.8 -0.2,0 -0.4,0 -0.6,0 -0.4,0 -0.6,0 -0.8,0 0,-0.4 0,-0.7 0,-1.3 -0.2,0.5 -0.6,1.3 -1.7,1.3 -0.1,0 -0.4,0 -0.7,-0.1 -0.7,-0.3 -0.9,-1.1 -0.9,-1.8 0.2,-1.5 1.2,-2.1 2.7,-2.1 z m 0.1,0.7 c -0.5,0 -1.5,0.1 -1.5,1.2 0,0.6 0.2,1.2 0.9,1.2 0.3,0 0.7,-0.2 1,-0.7 0.2,-0.4 0.2,-0.9 0.2,-1.7 z"
   id="path178" />
			<path
   class="st16"
   d="m 529.8,67.4 c 0,1.1 0.2,1.3 0.7,1.3 0.2,0 0.3,0 0.4,-0.1 0,0.2 -0.1,0.4 -0.1,0.7 v 0.3 c -0.2,0 -0.4,0 -0.7,0 -1.5,0 -1.6,-0.8 -1.6,-2.1 v -3.3 c -0.3,0 -0.6,0 -0.7,0 0,-0.2 0,-0.3 0,-0.5 0,-0.1 0,-0.3 0,-0.4 0.2,0 0.5,0.1 0.8,0 0,-0.4 0,-1.4 -0.1,-1.8 0.7,-0.1 1,-0.2 1.4,-0.4 0,0.3 -0.1,0.6 -0.1,2.1 0.3,0 0.6,0 0.9,0 0,0.2 0,0.4 0,0.6 0,0.1 0,0.2 0,0.3 -0.3,0 -0.6,-0.1 -0.9,-0.1 z"
   id="path180" />
			<path
   class="st16"
   d="m 533.2,69.6 c -0.2,0 -0.4,-0.1 -0.8,-0.1 -0.4,0 -0.6,0 -0.9,0.1 0.1,-0.2 0.2,-0.3 0.2,-1.1 0,-1.1 0.1,-3.9 0,-4.5 -0.1,-0.5 -0.2,-0.5 -0.3,-0.6 1,-0.1 1.3,-0.2 1.7,-0.4 -0.1,0.5 -0.1,0.8 -0.1,1.6 -0.1,4.1 -0.1,4.5 0.2,5 z m -0.9,-7.2 c -0.4,0 -0.7,-0.3 -0.7,-0.8 0,-0.3 0.1,-0.8 0.7,-0.8 0.5,0 0.6,0.4 0.6,0.8 0.1,0.5 0,0.8 -0.6,0.8 z"
   id="path182" />
			<path
   class="st16"
   d="m 538.8,68.4 c 0,0.4 0,0.8 0.2,1.2 -0.3,0 -0.4,-0.1 -0.9,-0.1 -0.3,0 -0.4,0 -0.7,0.1 0,-0.2 0.1,-0.2 0.1,-0.4 0,-0.3 0.1,-1.2 0.1,-1.5 v -1.3 c 0,-0.6 0,-1.4 0,-1.7 0,-0.2 -0.1,-0.8 -0.8,-0.8 -0.7,0 -0.9,0.5 -1,0.9 -0.1,0.4 -0.1,0.9 -0.1,2.7 0,1.5 0,1.7 0.1,2.1 -0.2,0 -0.5,0 -0.8,0 -0.3,0 -0.5,0 -0.7,0 0.1,-0.2 0.1,-0.3 0.2,-1 0,-0.7 0.1,-3.9 0,-4.7 -0.1,-0.5 -0.2,-0.6 -0.3,-0.7 1,0 1.3,-0.2 1.6,-0.4 v 1.3 c 0.1,-0.4 0.4,-1.2 1.6,-1.2 1.5,0 1.5,1.1 1.5,1.8 z"
   id="path184" />
			<path
   class="st16"
   d="m 543.6,63.2 0.2,0.1 c 0.7,0 1.2,-0.1 1.4,-0.2 0,0.3 0,0.5 0,0.8 -0.2,-0.1 -0.4,-0.1 -1,-0.1 0.1,0.2 0.3,0.5 0.3,1.3 0,1.2 -0.7,2.1 -2.1,2.1 -0.1,0 -0.3,0 -0.6,-0.1 h -0.2 c 0,0 -0.6,0.2 -0.6,0.6 0,0.4 0.4,0.5 0.6,0.5 0.2,0 0.3,0 1.1,0.1 1.3,0.1 2.5,0.2 2.5,1.7 0,1.7 -1.4,2.2 -3,2.2 -0.3,0 -0.7,0 -1,-0.1 -0.7,-0.2 -1.4,-0.6 -1.4,-1.3 0,-0.8 0.9,-1.2 1.3,-1.4 -0.4,-0.1 -1.1,-0.3 -1.1,-1.1 0,-0.8 0.9,-1.2 1.1,-1.3 -0.2,-0.1 -1,-0.5 -1,-1.8 0,-1.8 1.3,-2.2 2.3,-2.2 0.4,0 0.9,0.1 1.2,0.2 z m -2.7,7.3 c 0,0.8 0.7,1.1 1.6,1.1 1.1,0 1.8,-0.5 1.8,-1.1 0,-0.8 -1,-0.9 -2.7,-1 -0.1,-0.1 -0.7,0.3 -0.7,1 z m 1.4,-4 c 1,0 1,-0.9 1,-1.4 0,-0.8 -0.2,-1.4 -1,-1.4 -0.8,0 -1,0.7 -1,1.5 0,0.3 0,1.3 1,1.3 z"
   id="path186" />
			<path
   class="st16"
   d="m 552.4,63.2 c -0.1,0.3 -0.2,0.5 -0.3,1.1 -0.4,-0.5 -1.1,-0.5 -1.2,-0.5 -0.8,0 -1,0.5 -1,0.9 0,0.5 0.4,0.7 1,1.1 0.9,0.5 1.6,0.8 1.6,1.9 0,1.4 -1,2.1 -2.6,2.1 -0.9,0 -1.3,-0.2 -1.5,-0.2 0.2,-0.4 0.3,-0.6 0.3,-1.2 0.2,0.2 0.5,0.5 1.3,0.5 0.8,0 1.2,-0.4 1.2,-1 0,-0.5 -0.2,-0.6 -1.2,-1.2 -0.6,-0.3 -1.3,-0.8 -1.3,-1.8 0,-1 0.7,-1.9 2.3,-1.9 0.3,-0.1 0.9,0 1.4,0.2 z"
   id="path188" />
			<path
   class="st16"
   d="m 555.7,67.2 c 0.2,-1 0.7,-3 0.7,-3.6 0,-0.2 0,-0.3 -0.1,-0.5 0.1,0 0.2,0 0.3,0 0.1,0 0.3,0 0.4,0 0.3,0 0.6,0 0.9,-0.1 -0.4,0.9 -0.6,1.5 -1.3,4.1 -0.6,2.3 -0.6,2.4 -0.7,2.8 -0.2,0.7 -0.6,2 -2.5,2 -0.3,0 -0.4,0 -0.6,-0.1 0.2,-0.4 0.2,-0.7 0.3,-1.1 0.2,0.1 0.3,0.2 0.6,0.2 1.1,0 1.3,-0.9 1.4,-1.4 -0.1,0 -0.3,0 -0.4,0 -0.1,0 -0.3,0 -0.4,0 -0.1,-0.9 -0.9,-4.4 -1.3,-5.6 -0.2,-0.5 -0.2,-0.7 -0.4,-0.9 0.2,0 0.3,0 0.4,0 0.1,0 0.3,0 0.5,0 0.5,0 0.6,0 0.9,0 0,0.1 -0.1,0.2 -0.1,0.4 0,0.3 0.4,2.4 1,5.1 z"
   id="path190" />
			<path
   class="st16"
   d="m 562.2,63.2 c -0.1,0.3 -0.2,0.5 -0.3,1.1 -0.4,-0.5 -1.1,-0.5 -1.2,-0.5 -0.8,0 -1,0.5 -1,0.9 0,0.5 0.4,0.7 1,1.1 0.9,0.5 1.6,0.8 1.6,1.9 0,1.4 -1,2.1 -2.6,2.1 -0.9,0 -1.3,-0.2 -1.5,-0.2 0.2,-0.4 0.3,-0.6 0.3,-1.2 0.2,0.2 0.5,0.5 1.3,0.5 0.8,0 1.2,-0.4 1.2,-1 0,-0.5 -0.2,-0.6 -1.2,-1.2 -0.6,-0.3 -1.3,-0.8 -1.3,-1.8 0,-1 0.7,-1.9 2.3,-1.9 0.2,-0.1 0.8,0 1.4,0.2 z"
   id="path192" />
			<path
   class="st16"
   d="m 564.5,67.4 c 0,1.1 0.2,1.3 0.7,1.3 0.2,0 0.3,0 0.4,-0.1 0,0.2 -0.1,0.4 -0.1,0.7 v 0.3 c -0.2,0 -0.4,0 -0.7,0 -1.5,0 -1.6,-0.8 -1.6,-2.1 v -3.3 c -0.3,0 -0.6,0 -0.7,0 0,-0.2 0,-0.3 0,-0.5 0,-0.1 0,-0.3 0,-0.4 0.2,0 0.5,0.1 0.8,0 0,-0.4 0,-1.4 -0.1,-1.8 0.7,-0.1 1,-0.2 1.4,-0.4 0,0.3 -0.1,0.6 -0.1,2.1 0.3,0 0.6,0 0.9,0 0,0.2 0,0.4 0,0.6 0,0.1 0,0.2 0,0.3 -0.3,0 -0.6,-0.1 -0.9,-0.1 z"
   id="path194" />
			<path
   class="st16"
   d="m 570.6,66.5 h -3.2 c 0,0.6 0,2.3 1.9,2.3 0.7,0 1,-0.2 1.3,-0.4 -0.1,0.4 -0.1,0.6 -0.1,1.1 -0.2,0.1 -0.6,0.2 -1.4,0.2 -1.8,0 -2.9,-1 -2.9,-3.4 0,-0.6 0,-3.3 2.4,-3.3 1.8,0 2.1,1.4 2.1,2.8 z m -1.2,-0.9 c 0,-0.9 0,-1.9 -1,-1.9 -0.9,0 -1.1,0.9 -1.1,1.9 z"
   id="path196" />
			<path
   class="st16"
   d="m 571.6,66 c 0,-1.4 0,-1.6 -0.1,-2 -0.1,-0.5 -0.3,-0.6 -0.4,-0.7 1,0 1.4,-0.2 1.7,-0.3 v 1.3 c 0.2,-0.4 0.5,-1.2 1.7,-1.2 1.1,0 1.3,0.9 1.4,1.2 0.2,-0.4 0.6,-1.2 1.8,-1.2 1.2,0 1.4,0.7 1.4,1.7 v 1.7 c 0,1.9 0,2.9 0.2,3.3 -0.2,0 -0.4,-0.1 -0.8,-0.1 -0.3,0 -0.5,0 -0.8,0.1 0.1,-0.2 0.1,-0.3 0.2,-0.9 v -1 -0.8 -1.7 c 0,-0.7 -0.1,-1.2 -0.9,-1.2 -0.5,0 -0.8,0.4 -0.9,0.7 C 576,65.3 576,66 576,66.7 V 68 c 0,0.9 0,1.4 0.2,1.6 -0.3,0 -0.4,-0.1 -0.8,-0.1 -0.4,0 -0.5,0 -0.8,0.1 0.1,-0.2 0.1,-0.2 0.1,-0.4 0,-0.3 0.1,-0.8 0.1,-1.5 v -1.3 c 0,-1.7 -0.1,-2.3 -0.9,-2.3 -1,0 -1,1.1 -1,1.9 v 1.3 c 0,1.3 0,2 0.1,2.3 -0.2,0 -0.4,-0.1 -0.7,-0.1 -0.4,0 -0.6,0 -0.8,0.1 0.1,-0.2 0.1,-0.3 0.2,-1 V 67.1 66 Z"
   id="path198" />
		</g>
</svg>
